<svg width="1691" height="1262" viewBox="0 0 1691 1262" fill="none" xmlns="http://www.w3.org/2000/svg">
<path d="M1158.05 162.642L1491.83 633.574L1156.24 1099.05H1006.17L1273.86 727.943L1342.07 633.574L1274.77 538.599L1008.6 162.945H1158.36M1242.03 0H429.271L559.021 183.275H823.371L1141.68 632.361L687.861 1261.38H1238.69L1691 634.181L1242.03 0Z" fill="black"/>
<path d="M464.433 162.642L796.084 630.843L464.433 1099.05H314.674L579.632 724.909L646.326 630.843L579.632 536.778L314.674 162.642H464.433ZM548.407 0H0L447.153 630.843L0 1261.38H548.407L995.56 630.54L548.407 0Z" fill="black"/>
</svg>
