<svg width="438" height="57" viewBox="0 0 438 57" fill="none" xmlns="http://www.w3.org/2000/svg">
<g clip-path="url(#clip0_218_2878)">
<path d="M52.2433 7.34953L67.301 28.6303L52.1612 49.6642H45.3914L57.4677 32.8946L60.5448 28.6303L57.5087 24.3385L45.5008 7.36324H52.2569M56.0316 0H19.3652L25.2187 8.28193H37.1445L51.5047 28.5754L31.0312 57H55.8812L76.2864 28.6577L56.0316 0Z" fill="black"/>
<path d="M20.9522 7.34953L35.9142 28.5069L20.9522 49.6642H14.1961L26.1493 32.7575L29.1581 28.5069L26.1493 24.2562L14.1961 7.34953H20.9522ZM24.7406 0H0L20.1727 28.5069L0 57H24.7406L44.9133 28.4931L24.7406 0Z" fill="black"/>
<path d="M126.601 31.3453L100.028 6.22522H97.2246V50.7749H107.755V26.6147L134.411 50.7749H137.201V6.22522H126.601V31.3453Z" fill="black"/>
<path d="M195.352 19.3886L187.912 7.18506H176.779L189.786 28.5343L176.779 49.8836H187.912L213.924 7.18506H202.778L195.352 19.3886Z" fill="black"/>
<path d="M274.812 7.13025H264.281V49.8837H291.525V41.3275H274.812V7.13025Z" fill="black"/>
<path d="M308.334 7.13025H297.803V49.8837H308.334V7.13025Z" fill="black"/>
<path d="M384.716 18.991H368.961V7.13025H358.443V49.8837H368.961V27.5471H384.716V49.8837H395.247V7.13025H384.716V18.991Z" fill="black"/>
<path d="M401.264 7.18506V15.6727H414.366V49.8836H424.896V15.6727H437.998V7.18506H401.264Z" fill="black"/>
<path d="M196.885 40.1894L202.779 49.8836H213.926L202.451 31.0436L196.885 40.1894Z" fill="black"/>
<path d="M216.906 7.18506V15.6727H230.008V49.8836H240.539V15.6727H253.641V7.18506H216.906Z" fill="black"/>
<path d="M171.487 15.6727V7.13025H145.488V15.6727V49.8837H171.487V41.3275H156.019V32.7713H171.487V24.2289H156.019V15.6727H171.487Z" fill="black"/>
<path d="M341.813 41.2177C340.965 41.3411 340.049 41.4508 339.201 41.4508C321.175 41.4508 320.327 16.2759 339.201 15.6863C340.145 15.6589 341.006 15.6863 341.813 15.7412V7.18499C340.979 7.14385 340.104 7.11643 339.201 7.14385C306.802 8.19966 308.361 49.8836 339.201 49.8836C343.646 49.8836 347.694 48.8826 351.291 47.0589V28.548H341.813V41.2177Z" fill="black"/>
</g>
<defs>
<clipPath id="clip0_218_2878">
<rect width="438" height="57" fill="white"/>
</clipPath>
</defs>
</svg>
